<?xml version="1.0" encoding="UTF-8"?>
<!DOCTYPE svg PUBLIC "-//W3C//DTD SVG 1.1//EN" "http://www.w3.org/Graphics/SVG/1.1/DTD/svg11.dtd">
<svg xmlns="http://www.w3.org/2000/svg" version="1.1" width="500px" height="150px" style="shape-rendering:geometricPrecision; text-rendering:geometricPrecision; image-rendering:optimizeQuality; fill-rule:evenodd; clip-rule:evenodd" xmlns:xlink="http://www.w3.org/1999/xlink">
<g><path style="opacity:1" fill="#fffeff" d="M -0.5,-0.5 C 166.167,-0.5 332.833,-0.5 499.5,-0.5C 499.5,49.5 499.5,99.5 499.5,149.5C 332.833,149.5 166.167,149.5 -0.5,149.5C -0.5,99.5 -0.5,49.5 -0.5,-0.5 Z"/></g>
<g><path style="opacity:1" fill="#ee6dfa" d="M 63.5,9.5 C 66.5682,9.54673 69.5682,10.0467 72.5,11C 89.5782,21.0675 106.912,30.7342 124.5,40C 128.721,43.8221 129.554,48.3221 127,53.5C 123.662,56.3181 119.829,57.1515 115.5,56C 99.3234,47.1501 83.1567,38.3167 67,29.5C 50.609,37.9451 34.4423,46.7784 18.5,56C 8.38743,57.8875 4.22076,53.7209 6,43.5C 7.16667,42.3333 8.33333,41.1667 9.5,40C 27.7246,30.0591 45.7246,19.8925 63.5,9.5 Z"/></g>
<g><path style="opacity:1" fill="#ff14ff" d="M 64.5,39.5 C 68.1055,39.7986 71.4388,40.9653 74.5,43C 86.9957,49.7469 99.3291,56.7469 111.5,64C 114.063,65.0793 116.729,65.5793 119.5,65.5C 119.5,87.5 119.5,109.5 119.5,131.5C 126.997,130.804 128.997,133.637 125.5,140C 114.172,140.5 102.838,140.667 91.5,140.5C 91.6666,121.164 91.5,101.83 91,82.5C 90.5,82 90,81.5 89.5,81C 74.5,80.3333 59.5,80.3333 44.5,81C 44,81.5 43.5,82 43,82.5C 42.5,101.83 42.3334,121.164 42.5,140.5C 31.1618,140.667 19.8284,140.5 8.5,140C 4.847,134.164 6.51367,131.331 13.5,131.5C 13.5,109.5 13.5,87.5 13.5,65.5C 19.2969,65.1057 24.6303,63.2724 29.5,60C 41.2297,53.1402 52.8964,46.3068 64.5,39.5 Z"/></g>
<g><path style="opacity:1" fill="#ff13ff" d="M 142.5,62.5 C 157.837,62.3334 173.17,62.5001 188.5,63C 203.377,66.6124 209.21,75.7791 206,90.5C 202.445,97.0548 197.279,101.888 190.5,105C 195.544,112.255 200.711,119.422 206,126.5C 209.543,128.467 213.21,130.134 217,131.5C 218.123,134.956 217.29,137.79 214.5,140C 202.87,142.235 193.37,138.735 186,129.5C 181.75,123.335 177.75,117.002 174,110.5C 172.211,108.771 170.044,108.104 167.5,108.5C 167.334,114.842 167.5,121.175 168,127.5C 171,128.833 174,130.167 177,131.5C 179.209,135.207 178.376,138.04 174.5,140C 164.167,140.667 153.833,140.667 143.5,140C 140.713,137.833 139.88,134.999 141,131.5C 144,130.167 147,128.833 150,127.5C 150.667,109.833 150.667,92.1667 150,74.5C 147,73.1667 144,71.8333 141,70.5C 140.109,67.5024 140.609,64.8357 142.5,62.5 Z"/></g>
<g><path style="opacity:1" fill="#ff14ff" d="M 275.5,62.5 C 289.837,62.3334 304.171,62.5001 318.5,63C 331.332,66.1883 336.498,74.3549 334,87.5C 332.321,91.3818 329.821,94.5484 326.5,97C 342.325,105.909 344.658,117.576 333.5,132C 326.621,136.849 318.955,139.516 310.5,140C 299.167,140.667 287.833,140.667 276.5,140C 271.76,133.022 273.76,129.355 282.5,129C 283.126,128.25 283.626,127.416 284,126.5C 284.667,109.167 284.667,91.8333 284,74.5C 280.878,73.1137 277.711,71.7804 274.5,70.5C 273.211,67.6482 273.544,64.9815 275.5,62.5 Z"/></g>
<g><path style="opacity:1" fill="#ff13ff" d="M 486.5,92.5 C 482.5,92.5 478.5,92.5 474.5,92.5C 474.172,104.012 474.505,115.346 475.5,126.5C 475.077,129.243 476.244,130.576 479,130.5C 482.113,129.343 485.28,128.843 488.5,129C 491.978,131.706 492.311,134.706 489.5,138C 483.243,141.356 476.576,142.356 469.5,141C 463.836,138.668 460.336,134.501 459,128.5C 458.5,116.505 458.333,104.505 458.5,92.5C 452,93.5013 449.5,90.8347 451,84.5C 454.333,82.5 457.667,80.5 461,78.5C 462.504,75.3159 464.004,72.1493 465.5,69C 468.46,66.9478 471.293,67.1145 474,69.5C 474.499,73.4862 474.666,77.4862 474.5,81.5C 478.514,81.3345 482.514,81.5012 486.5,82C 490.349,85.5748 490.349,89.0748 486.5,92.5 Z"/></g>
<g><path style="opacity:1" fill="#fffbff" d="M 168.5,72.5 C 186.723,70.866 192.39,78.366 185.5,95C 179.732,97.228 173.732,98.0614 167.5,97.5C 167.198,89.0817 167.531,80.7483 168.5,72.5 Z"/></g>
<g><path style="opacity:1" fill="#fffdff" d="M 301.5,72.5 C 313.66,70.4928 318.494,75.4928 316,87.5C 312.731,92.9474 307.898,94.9474 301.5,93.5C 301.5,86.5 301.5,79.5 301.5,72.5 Z"/></g>
<g><path style="opacity:1" fill="#ff15ff" d="M 236.5,81.5 C 242.176,81.3339 247.843,81.5006 253.5,82C 266.662,86.8262 271.496,95.9929 268,109.5C 266.829,110.893 265.329,111.727 263.5,112C 253.839,112.5 244.172,112.666 234.5,112.5C 235.668,127.853 243.335,132.686 257.5,127C 259.451,123.91 261.951,121.41 265,119.5C 270.526,121.104 271.859,124.438 269,129.5C 257.851,142.418 244.684,144.918 229.5,137C 219.264,128.643 215.097,117.809 217,104.5C 219.767,93.5739 226.267,85.9072 236.5,81.5 Z"/></g>
<g><path style="opacity:1" fill="#ff15ff" d="M 364.5,81.5 C 370.176,81.3339 375.843,81.5006 381.5,82C 394.662,86.8262 399.496,95.9929 396,109.5C 394.829,110.893 393.329,111.727 391.5,112C 381.839,112.5 372.172,112.666 362.5,112.5C 363.668,127.853 371.335,132.686 385.5,127C 387.451,123.91 389.951,121.41 393,119.5C 398.526,121.104 399.859,124.438 397,129.5C 385.851,142.418 372.684,144.918 357.5,137C 347.264,128.643 343.097,117.809 345,104.5C 347.767,93.5739 354.267,85.9072 364.5,81.5 Z"/></g>
<g><path style="opacity:1" fill="#ff16ff" d="M 418.5,81.5 C 423.844,81.334 429.177,81.5006 434.5,82C 447.502,86.177 449.836,93.5104 441.5,104C 439.913,104.862 438.246,105.529 436.5,106C 448.761,110.989 451.928,119.489 446,131.5C 437,141.051 426.167,143.884 413.5,140C 403.434,136.953 399.934,130.453 403,120.5C 407.953,114.244 413.286,113.91 419,119.5C 419.667,120.833 419.667,122.167 419,123.5C 416.631,124.927 416.131,126.761 417.5,129C 423.428,132.627 428.928,132.127 434,127.5C 434.92,124.692 434.087,122.525 431.5,121C 424.758,118.864 418.091,116.531 411.5,114C 402.151,105.859 401.151,96.8588 408.5,87C 411.767,84.8703 415.1,83.037 418.5,81.5 Z"/></g>
<g><path style="opacity:1" fill="#f4a0fb" d="M 82.5,89.5 C 72.1667,89.5 61.8333,89.5 51.5,89.5C 51.5,106.5 51.5,123.5 51.5,140.5C 50.5033,123.341 50.17,106.008 50.5,88.5C 61.3464,88.1722 72.0131,88.5056 82.5,89.5 Z"/></g>
<g><path style="opacity:1" fill="#ee6cfa" d="M 82.5,89.5 C 82.5,106.5 82.5,123.5 82.5,140.5C 72.1667,140.5 61.8333,140.5 51.5,140.5C 51.5,123.5 51.5,106.5 51.5,89.5C 61.8333,89.5 72.1667,89.5 82.5,89.5 Z"/></g>
<g><path style="opacity:1" fill="#fffaff" d="M 240.5,91.5 C 249.61,89.6106 253.61,93.2773 252.5,102.5C 246.5,102.5 240.5,102.5 234.5,102.5C 235.198,98.1026 237.198,94.4359 240.5,91.5 Z"/></g>
<g><path style="opacity:1" fill="#fffaff" d="M 368.5,91.5 C 377.61,89.6106 381.61,93.2773 380.5,102.5C 374.5,102.5 368.5,102.5 362.5,102.5C 363.198,98.1026 365.198,94.4359 368.5,91.5 Z"/></g>
<g><path style="opacity:1" fill="#fff5ff" d="M 422.5,90.5 C 426.192,89.9712 429.358,90.9712 432,93.5C 431.537,95.5259 430.704,97.5259 429.5,99.5C 429.68,100.554 430.013,101.554 430.5,102.5C 426.077,102.981 422.077,101.648 418.5,98.5C 417.515,96.9017 417.349,95.235 418,93.5C 419.652,92.6006 421.152,91.6006 422.5,90.5 Z"/></g>
<g><path style="opacity:1" fill="#ffacff" d="M 486.5,92.5 C 483.038,93.4816 479.371,93.815 475.5,93.5C 475.5,104.5 475.5,115.5 475.5,126.5C 474.505,115.346 474.172,104.012 474.5,92.5C 478.5,92.5 482.5,92.5 486.5,92.5 Z"/></g>
<g><path style="opacity:1" fill="#fd18fe" d="M 72.5,103.5 C 75.4678,103.626 77.4678,105.126 78.5,108C 75.1063,114.031 72.1063,113.864 69.5,107.5C 69.7867,105.557 70.7867,104.223 72.5,103.5 Z"/></g>
<g><path style="opacity:1" fill="#fffcff" d="M 301.5,104.5 C 306.248,104.275 310.915,104.775 315.5,106C 323.605,111.533 324.605,118.2 318.5,126C 313.283,129.171 307.783,130.005 302,128.5C 301.5,120.507 301.334,112.507 301.5,104.5 Z"/></g>
</svg>
