<?xml version="1.0" encoding="UTF-8"?>
<!DOCTYPE svg PUBLIC "-//W3C//DTD SVG 1.1//EN" "http://www.w3.org/Graphics/SVG/1.1/DTD/svg11.dtd">
<svg xmlns="http://www.w3.org/2000/svg" version="1.1" width="500px" height="500px" style="shape-rendering:geometricPrecision; text-rendering:geometricPrecision; image-rendering:optimizeQuality; fill-rule:evenodd; clip-rule:evenodd" xmlns:xlink="http://www.w3.org/1999/xlink">
<g><path style="opacity:0.994" fill="#ee6afa" d="M 244.5,32.5 C 254.149,32.6622 263.149,35.1622 271.5,40C 327.671,71.92 384.005,103.587 440.5,135C 454.432,147.006 456.932,161.173 448,177.5C 438.488,188.669 426.655,192.169 412.5,188C 358.167,157.833 303.833,127.667 249.5,97.5C 195.167,127.667 140.833,157.833 86.5,188C 67.2352,192.619 54.0686,185.786 47,167.5C 44.1836,154.244 48.017,143.41 58.5,135C 116.328,102.92 173.995,70.5867 231.5,38C 235.717,35.5488 240.05,33.7155 244.5,32.5 Z"/></g>
<g><path style="opacity:0.996" fill="#ff00ff" d="M 248.5,130.5 C 296.435,156.469 344.101,182.969 391.5,210C 401.37,215.402 411.87,218.569 423,219.5C 423.5,291.499 423.667,363.499 423.5,435.5C 428.844,435.334 434.177,435.501 439.5,436C 449.409,441.395 451.909,449.228 447,459.5C 445.127,461.709 442.96,463.542 440.5,465C 404.215,466.474 367.882,466.974 331.5,466.5C 331.989,402.442 331.489,338.442 330,274.5C 327.051,269.272 322.551,266.439 316.5,266C 271.5,265.333 226.5,265.333 181.5,266C 175.864,266.73 171.697,269.564 169,274.5C 167.511,338.442 167.011,402.442 167.5,466.5C 131.105,466.981 94.7717,466.481 58.5,465C 49.2276,459.264 47.0609,451.431 52,441.5C 53.9384,438.894 56.4384,437.061 59.5,436C 64.8229,435.501 70.1563,435.334 75.5,435.5C 75.5,363.5 75.5,291.5 75.5,219.5C 86.9707,219.066 97.6373,215.899 107.5,210C 154.562,183.473 201.562,156.973 248.5,130.5 Z M 269.5,343.5 C 279.444,343.64 285.111,348.64 286.5,358.5C 283.602,370.908 276.269,374.741 264.5,370C 258.13,364.081 256.963,357.247 261,349.5C 263.671,347.098 266.505,345.098 269.5,343.5 Z"/></g>
<g><path style="opacity:0.985" fill="#ee6bfa" d="M 196.5,295.5 C 231.833,295.5 267.167,295.5 302.5,295.5C 302.5,352.5 302.5,409.5 302.5,466.5C 267.167,466.5 231.833,466.5 196.5,466.5C 196.5,409.5 196.5,352.5 196.5,295.5 Z M 269.5,343.5 C 266.505,345.098 263.671,347.098 261,349.5C 256.963,357.247 258.13,364.081 264.5,370C 276.269,374.741 283.602,370.908 286.5,358.5C 285.111,348.64 279.444,343.64 269.5,343.5 Z"/></g>
</svg>
